<?xml version="1.0" standalone="no"?>
<!DOCTYPE svg PUBLIC "-//W3C//DTD SVG 20010904//EN"
 "http://www.w3.org/TR/2001/REC-SVG-20010904/DTD/svg10.dtd">
<svg version="1.0" xmlns="http://www.w3.org/2000/svg"
 width="192.000000pt" height="192.000000pt" viewBox="0 0 192.000000 192.000000"
 preserveAspectRatio="xMidYMid meet">
<metadata>
Created by potrace 1.14, written by Peter Selinger 2001-2017
</metadata>
<g transform="translate(0.000000,192.000000) scale(0.100000,-0.100000)"
fill="#000000" stroke="none">
<path d="M0 960 l0 -960 960 0 960 0 0 960 0 960 -960 0 -960 0 0 -960z m254
784 c26 -29 51 -54 56 -54 5 0 37 25 72 55 64 56 85 64 106 43 20 -20 13 -45
-20 -73 -18 -15 -50 -43 -71 -62 l-38 -34 46 -52 c46 -53 54 -74 33 -95 -23
-23 -46 -12 -93 43 l-47 55 -56 -50 c-57 -51 -79 -59 -100 -38 -23 23 -12 46
43 93 30 25 55 50 55 55 0 5 -18 30 -40 55 -61 71 -67 85 -41 106 29 23 39 18
95 -47z m410 27 c16 -17 16 -32 5 -190 -6 -94 -8 -175 -5 -179 6 -5 624 -23
633 -18 0 1 6 78 13 171 13 180 20 205 65 205 12 0 30 -9 39 -19 16 -18 17
-31 7 -158 -6 -77 -11 -153 -11 -170 l0 -31 169 -4 c183 -4 201 -9 201 -57 0
-48 -11 -51 -202 -51 -98 0 -178 -1 -178 -2 0 -2 -9 -129 -20 -283 -11 -154
-20 -295 -20 -312 l0 -33 177 0 c150 0 179 -2 195 -17 22 -20 23 -51 1 -75
-14 -16 -34 -18 -198 -18 l-183 0 -6 -52 c-3 -29 -8 -100 -11 -158 -8 -149
-12 -168 -40 -186 -23 -15 -27 -15 -51 1 l-27 17 7 136 c4 75 9 162 13 194 l6
58 -320 0 -320 0 -7 -92 c-17 -237 -18 -250 -37 -269 -25 -25 -44 -24 -70 2
-19 19 -21 29 -15 88 3 36 8 114 12 174 l7 107 -168 0 c-143 0 -171 3 -187 17
-22 20 -23 51 -1 75 14 16 34 18 190 18 95 0 173 3 173 8 0 4 9 138 20 297 11
160 20 297 20 306 0 15 -20 17 -168 20 -183 4 -202 10 -202 58 0 48 11 51 202
51 166 0 178 1 178 18 0 11 5 90 11 178 11 169 20 194 64 194 12 0 30 -8 39
-19z m-257 -612 c141 -87 64 -327 -123 -384 -60 -18 -121 -4 -169 40 -87 81
-57 245 62 328 72 51 163 57 230 16z m1129 -741 c26 -35 51 -62 57 -60 6 2 31
20 56 41 25 21 59 46 75 56 28 19 29 19 47 -3 10 -13 16 -29 13 -37 -5 -11
-68 -65 -143 -121 -12 -10 -9 -19 22 -62 42 -57 46 -86 15 -103 -23 -12 -40 1
-93 75 l-20 28 -64 -51 c-71 -57 -66 -55 -92 -41 -41 22 -26 45 104 151 5 4
-12 38 -38 77 -40 60 -45 73 -35 91 19 37 47 25 96 -41z"/>
<path d="M650 1281 c0 -3 -9 -139 -20 -301 -11 -162 -20 -303 -20 -312 0 -17
22 -18 320 -18 l320 0 0 23 c0 12 9 146 20 297 11 151 20 280 20 287 0 7 -15
14 -32 17 -47 7 -608 13 -608 7z m431 -119 c143 -91 106 -303 -66 -388 -46
-22 -65 -26 -117 -22 -85 5 -138 40 -168 111 -65 150 67 326 246 327 49 0 68
-5 105 -28z"/>
<path d="M918 1110 c-98 -30 -157 -132 -121 -207 60 -127 267 -82 298 64 18
87 -86 172 -177 143z"/>
<path d="M232 1090 c-61 -37 -95 -124 -72 -181 37 -89 161 -75 209 25 25 51
26 86 6 127 -27 50 -87 63 -143 29z"/>
</g>
</svg>
